# xmcd CD database file
#
# Track frame offsets:
#	150
#	21742
#	35190
#
# Disc length: 773 seconds
#
# Revision: 0
# Processed by: cddbd v1.5.1PL0 Copyright (c) Steve Scherf et al.
# Submitted via: CDex 1.51
#
DISCID=28030303
DTITLE=BON JOVI - THE DISTANCE
DYEAR=2003
DGENRE=Rock
TTITLE0=THE DISTANCE(SINGLE EDIT)
TTITLE1=EVERYDAY(DEMO)
TTITLE2=JOEY(DEMO)
EXTD=YEAR: 2003
EXTT0=
EXTT1=
EXTT2=
PLAYORDER=
